<svg xmlns="http://www.w3.org/2000/svg" version="1.1" xmlns:xlink="http://www.w3.org/1999/xlink" width="512" height="512" x="0" y="0" viewBox="0 0 24 24" style="enable-background:new 0 0 512 512" xml:space="preserve" class=""><g><g data-name="Layer 2"><path d="M6 22H4a2 2 0 0 1-2-2V6a2 2 0 0 1 2-2h2a2 2 0 0 1 2 2v14a2 2 0 0 1-2 2zM4 6v14h2V6zM13 22h-2a2 2 0 0 1-2-2V9a2 2 0 0 1 2-2h2a2 2 0 0 1 2 2v11a2 2 0 0 1-2 2zM11 9v11h2V9zM20 22h-2a2 2 0 0 1-2-2v-7a2 2 0 0 1 2-2h2a2 2 0 0 1 2 2v7a2 2 0 0 1-2 2zm-2-9v7h2v-7z" fill="#000000" opacity="1" data-original="#000000" class=""></path></g></g></svg>