<svg id="Layer_1" enable-background="new 0 0 30 30" height="512" viewBox="0 0 30 30" width="512" xmlns="http://www.w3.org/2000/svg"><g><path d="m26.8999634 12.1227398c-.25-.7600098-.9100342-1.3099976-1.7099609-1.4299927l-5.6800537-.8200073-2.6199951-5.2100224c-.3599854-.7299805-1.0799561-1.1799927-1.8900146-1.1799927-.8099365 0-1.5300293.4500122-1.8898926 1.1799927l-2.5400391 5.1500249-.0800781.0599976-5.6799316.8200073c-.8000488.1199951-1.4599609.6699829-1.7099609 1.4299927-.25.7699585-.0400391 1.5999756.539917 2.1699829l4.1099854 4 .0300293.0999756-.9699707 5.6600342c-.1400146.789978.1799316 1.5800171.8399658 2.0599976.6500244.4699707 1.5.539978 2.2200928.1599731l5.0799561-2.6699829 5.1800537 2.6699829c.3099365.1600342.6499023.2399902.9799805.2399902 1.3083572 0 2.3079529-1.1735725 2.0799561-2.4599609l-.9700928-5.6600342 4.1401367-4.0999756c.5799557-.5700074.7899167-1.4000245.5399167-2.169983z"/></g></svg>